name Walk7.mot
datacolumns 19
datarows 27
range 1.26000000 1.39000000
endheader

                time	   L_ground_force_vx	   L_ground_force_vy	   L_ground_force_vz	   L_ground_force_px	   L_ground_force_py	   L_ground_force_pz	   R_ground_force_vx	   R_ground_force_vy	   R_ground_force_vz	   R_ground_force_px	   R_ground_force_py	   R_ground_force_pz	   L_ground_torque_x	   L_ground_torque_y	   L_ground_torque_z	   R_ground_torque_x	   R_ground_torque_y	   R_ground_torque_z	
          1.26000000	         -7.31855704	         65.56034428	          0.22833075	         -0.32002781	          0.00000000	         -0.01779589	         -0.00000000	         -0.00000000	         -0.00000000	          0.00000000	          0.00000000	          0.00000000	          0.00000000	          0.07621555	          0.00000000	          0.00000000	          0.00000000	          0.00000000	
          1.26500000	        -13.90240631	        187.35164035	         -4.22856918	         -0.47171788	          0.00000000	         -0.02596466	         -0.00000000	          0.00000000	         -0.00000000	          0.00000000	          0.00000000	          0.00000000	          0.00000000	          0.22686514	          0.00000000	          0.00000000	          0.00000000	          0.00000000	
          1.27000000	        -15.34707845	        269.26957679	        -12.78503794	         -0.46936067	          0.00000000	         -0.02544073	         -0.00000000	          0.00000000	          0.00000000	          0.00000000	          0.00000000	          0.00000000	          0.00000000	          0.27780529	          0.00000000	          0.00000000	          0.00000000	          0.00000000	
          1.27500000	        -16.88715105	        270.80258242	        -19.03704045	         -0.45058091	          0.00000000	         -0.02440077	          0.00000000	          0.00000000	          0.00000000	         -0.00000000	          0.00000000	         -0.00000000	          0.00000000	          0.25724173	          0.00000000	          0.00000000	         -0.00000000	          0.00000000	
          1.28000000	        -21.71107906	        259.61556418	        -20.34618621	         -0.44385675	          0.00000000	         -0.02472865	          0.00000000	         -0.00000000	          0.00000000	         -0.00000000	          0.00000000	         -0.00000000	          0.00000000	          0.30883813	          0.00000000	          0.00000000	         -0.00000000	          0.00000000	
          1.28500000	        -29.26554750	        273.08764116	        -19.03023687	         -0.44236969	          0.00000000	         -0.02593747	          0.00000000	         -0.00000000	         -0.00000000	         -0.00000000	          0.00000000	         -0.00000000	          0.00000000	          0.49330016	          0.00000000	          0.00000000	         -0.00000000	          0.00000000	
          1.29000000	        -38.90858321	        296.34603632	        -16.53070112	         -0.44032453	          0.00000000	         -0.02779158	         -0.00000000	          0.00000000	         -0.00000000	          0.00000000	          0.00000000	          0.00000000	          0.00000000	          0.75722403	          0.00000000	          0.00000000	          0.00000000	          0.00000000	
          1.29500000	        -48.45587273	        318.74412042	        -11.64337266	         -0.43624683	          0.00000000	         -0.03043762	         -0.00000000	          0.00000000	         -0.00000000	          0.00000000	          0.00000000	          0.00000000	          0.00000000	          1.00279562	          0.00000000	          0.00000000	          0.00000000	          0.00000000	
          1.30000000	        -55.22151952	        342.49950483	         -3.33546666	         -0.43133383	          0.00000000	         -0.03299634	          0.00000000	          0.00000000	          0.00000000	         -0.00000000	          0.00000000	         -0.00000000	          0.00000000	          1.14111274	          0.00000000	          0.00000000	          0.00000000	          0.00000000	
          1.30500000	        -59.41313897	        366.20566933	          5.36412066	         -0.42728258	          0.00000000	         -0.03517227	          0.00000000	         -0.00000000	          0.00000000	         -0.00000000	          0.00000000	         -0.00000000	          0.00000000	          1.15930155	          0.00000000	          0.00000000	         -0.00000000	          0.00000000	
          1.31000000	        -62.60810118	        383.84460177	         11.03422174	         -0.42447115	          0.00000000	         -0.03685229	          0.00000000	         -0.00000000	          0.00000000	         -0.00000000	          0.00000000	         -0.00000000	          0.00000000	          1.13950213	          0.00000000	          0.00000000	         -0.00000000	          0.00000000	
          1.31500000	        -65.58083604	        394.40250223	         14.37911473	         -0.42216196	          0.00000000	         -0.03796546	         -0.00000000	         -0.00000000	         -0.00000000	          0.00000000	          0.00000000	          0.00000000	          0.00000000	          1.15569310	          0.00000000	          0.00000000	          0.00000000	          0.00000000	
          1.32000000	        -68.81826109	        404.40947338	         17.71105153	         -0.41977685	          0.00000000	         -0.03912548	         -0.00000000	          0.00000000	         -0.00000000	          0.00000000	          0.00000000	          0.00000000	          0.00000000	          1.19485174	          0.00000000	          0.00000000	          0.00000000	          0.00000000	
          1.32500000	        -72.57869155	        420.39135219	         21.89918367	         -0.41739503	          0.00000000	         -0.04037156	         -0.00000000	          0.00000000	          0.00000000	          0.00000000	          0.00000000	          0.00000000	          0.00000000	          1.21294900	          0.00000000	          0.00000000	          0.00000000	          0.00000000	
          1.33000000	        -76.66923472	        442.93144042	         25.98086262	         -0.41504439	          0.00000000	         -0.04122186	          0.00000000	          0.00000000	          0.00000000	         -0.00000000	          0.00000000	         -0.00000000	          0.00000000	          1.21728928	          0.00000000	          0.00000000	         -0.00000000	          0.00000000	
          1.33500000	        -80.88287788	        468.15112282	         28.64665023	         -0.41292018	          0.00000000	         -0.04165393	          0.00000000	         -0.00000000	          0.00000000	         -0.00000000	          0.00000000	         -0.00000000	          0.00000000	          1.28853055	          0.00000000	          0.00000000	         -0.00000000	          0.00000000	
          1.34000000	        -84.60358430	        492.67316156	         29.43430052	         -0.41108622	          0.00000000	         -0.04176524	          0.00000000	         -0.00000000	         -0.00000000	         -0.00000000	          0.00000000	         -0.00000000	          0.00000000	          1.47293535	          0.00000000	          0.00000000	         -0.00000000	          0.00000000	
          1.34500000	        -86.87648878	        515.23215089	         28.85137609	         -0.40944798	          0.00000000	         -0.04184483	         -0.00000000	         -0.00000000	         -0.00000000	          0.00000000	          0.00000000	          0.00000000	          0.00000000	          1.72223827	          0.00000000	          0.00000000	          0.00000000	          0.00000000	
          1.35000000	        -87.63248645	        536.04843895	         28.21454585	         -0.40810720	          0.00000000	         -0.04193630	         -0.00000000	          0.00000000	         -0.00000000	          0.00000000	          0.00000000	          0.00000000	          0.00000000	          1.96214021	          0.00000000	          0.00000000	          0.00000000	          0.00000000	
          1.35500000	        -87.73327095	        555.62900428	         28.67671251	         -0.40720585	          0.00000000	         -0.04195203	         -0.00000000	          0.00000000	          0.00000000	          0.00000000	          0.00000000	          0.00000000	          0.00000000	          2.12129027	          0.00000000	          0.00000000	          0.00000000	          0.00000000	
          1.36000000	        -87.48903237	        574.20945741	         30.02218625	         -0.40635743	          0.00000000	         -0.04183461	          0.00000000	         -0.00000000	          0.00000000	         -0.00000000	          0.00000000	         -0.00000000	          0.00000000	          2.25396391	          0.00000000	          0.00000000	         -0.00000000	          0.00000000	
          1.36500000	        -86.78597683	        591.36474660	         31.16609249	         -0.40556848	          0.00000000	         -0.04186375	          0.00000000	         -0.00000000	          0.00000000	         -0.00000000	          0.00000000	         -0.00000000	          0.00000000	          2.36100435	          0.00000000	          0.00000000	         -0.00000000	          0.00000000	
          1.37000000	        -85.61551403	        606.18074413	         31.42005003	         -0.40496087	          0.00000000	         -0.04204428	         -0.00000000	         -0.00000000	         -0.00000000	          0.00000000	          0.00000000	          0.00000000	          0.00000000	          2.44882458	          0.00000000	          0.00000000	         -0.00000000	          0.00000000	
          1.37500000	        -83.99103481	        618.47642297	         31.04469578	         -0.40437139	          0.00000000	         -0.04215174	         -0.00000000	          0.00000000	         -0.00000000	          0.00000000	          0.00000000	          0.00000000	          0.00000000	          2.51985303	          0.00000000	          0.00000000	          0.00000000	          0.00000000	
          1.38000000	        -82.00485568	        628.70607268	         30.69538706	         -0.40384773	          0.00000000	         -0.04206120	         -0.00000000	          0.00000000	         -0.00000000	          0.00000000	          0.00000000	          0.00000000	          0.00000000	          2.57784046	          0.00000000	          0.00000000	          0.00000000	          0.00000000	
          1.38500000	        -79.81778671	        636.49970642	         30.71219990	         -0.40344154	          0.00000000	         -0.04208883	          0.00000000	          0.00000000	          0.00000000	         -0.00000000	          0.00000000	         -0.00000000	          0.00000000	          2.57504941	          0.00000000	          0.00000000	         -0.00000000	          0.00000000	
          1.39000000	        -77.55416075	        641.94640324	         31.02867974	         -0.40290926	          0.00000000	         -0.04243838	          0.00000000	         -0.00000000	          0.00000000	         -0.00000000	          0.00000000	         -0.00000000	          0.00000000	          2.50027885	          0.00000000	          0.00000000	         -0.00000000	          0.00000000	
